<svg width="26" height="26" viewBox="0 0 26 26" fill="none" xmlns="http://www.w3.org/2000/svg">
<path d="M22.724 18.3559L18.564 22.5159L18.2 22.4509C16.3819 22.0871 14.6289 21.4517 13 20.5659C11.3979 19.7056 9.93066 18.615 8.64501 17.3289C6.04578 14.6958 4.28202 11.3537 3.57501 7.72194L3.49701 7.38394L7.61801 3.26294L11.934 7.56594L9.54201 9.95794C9.75125 10.4092 9.99463 10.8438 10.27 11.2579L9.32101 12.2069C8.88 11.5232 8.49315 10.806 8.16401 10.0619L7.98201 9.65894L10.088 7.56594L7.61801 5.09594L4.91401 7.79994C5.25326 9.36439 5.80894 10.8739 6.56501 12.2849C7.37632 13.8006 8.40561 15.1891 9.62001 16.4059C10.8148 17.607 12.1818 18.6235 13.676 19.4219C15.0936 20.1998 16.6179 20.7649 18.2 21.0989L20.943 18.3559L18.46 15.8859L16.328 18.0049L15.925 17.8229C14.23 17.0774 12.6908 16.0189 11.388 14.7029C11.0397 14.4023 10.7098 14.0811 10.4 13.7409L11.323 12.8179C11.596 13.1559 11.895 13.4809 12.194 13.7929C13.2894 14.8841 14.5591 15.7848 15.951 16.4579L18.356 14.0399L22.724 18.3559Z" fill="#232A40"/>
</svg>
