<svg width="20" height="20" viewBox="0 0 20 20" fill="none" xmlns="http://www.w3.org/2000/svg">
<g clip-path="url(#clip0_1_201)">
<rect width="20" height="20" rx="3" fill="#F5F5F5"/>
<path d="M9.9985 7.99915C8.89676 7.99915 7.99765 8.89826 7.99765 10C7.99765 11.1017 8.89676 12.0009 9.9985 12.0009C11.1002 12.0009 11.9994 11.1017 11.9994 10C11.9994 8.89826 11.1002 7.99915 9.9985 7.99915ZM15.9996 10C15.9996 9.17144 16.0071 8.35039 15.9605 7.52333C15.914 6.56268 15.6949 5.7101 14.9924 5.00763C14.2884 4.30365 13.4373 4.086 12.4767 4.03947C11.6481 3.99294 10.8271 4.00045 10 4.00045C9.17144 4.00045 8.35039 3.99294 7.52333 4.03947C6.56268 4.086 5.7101 4.30515 5.00763 5.00763C4.30365 5.7116 4.086 6.56268 4.03947 7.52333C3.99294 8.35189 4.00045 9.17294 4.00045 10C4.00045 10.8271 3.99294 11.6496 4.03947 12.4767C4.086 13.4373 4.30515 14.2899 5.00763 14.9924C5.7116 15.6963 6.56268 15.914 7.52333 15.9605C8.35189 16.0071 9.17294 15.9996 10 15.9996C10.8286 15.9996 11.6496 16.0071 12.4767 15.9605C13.4373 15.914 14.2899 15.6948 14.9924 14.9924C15.6964 14.2884 15.914 13.4373 15.9605 12.4767C16.0086 11.6496 15.9996 10.8286 15.9996 10ZM9.9985 13.0786C8.29485 13.0786 6.91992 11.7037 6.91992 10C6.91992 8.29635 8.29485 6.92142 9.9985 6.92142C11.7022 6.92142 13.0771 8.29635 13.0771 10C13.0771 11.7037 11.7022 13.0786 9.9985 13.0786ZM13.2032 7.51432C12.8054 7.51432 12.4842 7.1931 12.4842 6.79533C12.4842 6.39757 12.8054 6.07635 13.2032 6.07635C13.6009 6.07635 13.9222 6.39757 13.9222 6.79533C13.9223 6.88979 13.9038 6.98333 13.8677 7.07062C13.8316 7.1579 13.7786 7.23721 13.7118 7.304C13.645 7.37079 13.5657 7.42374 13.4785 7.45983C13.3912 7.49592 13.2976 7.51444 13.2032 7.51432Z" fill="#232A40"/>
</g>
<defs>
<clipPath id="clip0_1_201">
<rect width="20" height="20" fill="white"/>
</clipPath>
</defs>
</svg>
