<svg width="20" height="20" viewBox="0 0 20 20" fill="none" xmlns="http://www.w3.org/2000/svg">
<g clip-path="url(#clip0_1_193)">
<path d="M3.92145 0.00488281C1.76711 0.00488281 0.00390625 1.76804 0.00390625 3.92242V16.0792C0.00390625 18.2336 1.76707 19.9961 3.92145 19.9961H16.0783C18.2326 19.9961 19.9952 18.2336 19.9952 16.0792V3.92242C19.9952 1.76808 18.2326 0.00488281 16.0783 0.00488281H3.92145ZM4.90677 3.30384C5.93973 3.30384 6.57599 3.98196 6.59563 4.87334C6.59563 5.74504 5.93969 6.44222 4.88679 6.44222H4.86741C3.85411 6.44222 3.19917 5.74508 3.19917 4.87334C3.19917 3.98198 3.87393 3.30384 4.90675 3.30384H4.90677ZM13.8084 7.47004C15.795 7.47004 17.2842 8.76848 17.2842 11.5588V16.7677H14.2651V11.908C14.2651 10.6868 13.8282 9.85364 12.7356 9.85364C11.9015 9.85364 11.4044 10.4152 11.1861 10.9577C11.1063 11.1518 11.0867 11.4228 11.0867 11.6943V16.7677H8.06768C8.06768 16.7677 8.1073 8.53548 8.06768 7.68308H11.0874V8.96956C11.4886 8.35056 12.2062 7.47002 13.8084 7.47002V7.47004ZM3.37725 7.68374H6.39631V16.7678H3.37725V7.68374Z" fill="#F5F5F5"/>
</g>
<defs>
<clipPath id="clip0_1_193">
<rect width="20" height="20" fill="white"/>
</clipPath>
</defs>
</svg>
