<svg width="20" height="20" viewBox="0 0 20 20" fill="none" xmlns="http://www.w3.org/2000/svg">
<rect width="20" height="20" rx="3" fill="#F5F5F5"/>
<path d="M17.8764 4.98273C17.3109 5.23329 16.7035 5.40259 16.0649 5.47911C16.7238 5.08484 17.2167 4.46431 17.4518 3.73331C16.8327 4.10101 16.1552 4.35984 15.4486 4.49853C14.9735 3.99123 14.3442 3.65497 13.6583 3.54198C12.9725 3.42899 12.2686 3.54558 11.6558 3.87366C11.0431 4.20173 10.5557 4.72293 10.2695 5.35634C9.98335 5.98975 9.91428 6.69992 10.0731 7.37661C8.81868 7.31363 7.59157 6.98759 6.47135 6.41967C5.35114 5.85174 4.36285 5.05462 3.57064 4.08003C3.29977 4.54729 3.14401 5.08905 3.14401 5.66602C3.14371 6.18542 3.27162 6.69687 3.51639 7.15498C3.76115 7.6131 4.11522 8.00372 4.54716 8.29217C4.04622 8.27624 3.55634 8.14088 3.11828 7.89737V7.938C3.11823 8.66649 3.37022 9.37255 3.83149 9.9364C4.29276 10.5002 4.9349 10.8871 5.64895 11.0314C5.18425 11.1572 4.69705 11.1757 4.22414 11.0856C4.4256 11.7124 4.81803 12.2605 5.34649 12.6533C5.87496 13.046 6.51299 13.2636 7.17128 13.2756C6.0538 14.1529 4.67372 14.6287 3.25304 14.6266C3.00138 14.6267 2.74994 14.612 2.5 14.5826C3.94207 15.5098 5.62074 16.0019 7.33516 16C13.1387 16 16.3114 11.1933 16.3114 7.02447C16.3114 6.88903 16.308 6.75224 16.3019 6.6168C16.919 6.17051 17.4517 5.61787 17.875 4.98476L17.8764 4.98273Z" fill="#232A40"/>
</svg>
